<svg width="75" height="60" viewBox="0 0 75 60" fill="none" xmlns="http://www.w3.org/2000/svg">
<g clip-path="url(#clip0_23_85)">
<path fill-rule="evenodd" clip-rule="evenodd" d="M25.4799 0.0308073C18.8157 0.170298 13.5557 0.957487 9.74193 2.38611C4.05448 4.51659 1.133 8.17207 0.279391 14.2261C0.085062 15.6044 0.0321299 16.4431 0.00642144 18.5515C-0.0265695 21.2573 0.0616017 23.1039 0.410278 27.007C0.52279 28.2668 0.708566 30.1658 0.89556 31.9679C0.934613 32.3442 1.02245 33.2019 1.09077 33.874C1.1591 34.5461 1.24678 35.4038 1.28569 35.7801C1.32459 36.1565 1.42366 37.1792 1.50577 38.0529C1.81134 41.3029 1.90381 42.1071 2.12107 43.4047C3.25101 50.1533 5.82078 54.5758 10.0873 57.1147C12.8349 58.7497 16.2009 59.6404 20.8123 59.9527C21.7909 60.0191 52.1 60.014 53.2811 59.9474C63.1976 59.3877 68.6086 55.759 71.1813 47.9427C71.962 45.5723 72.4413 42.9907 72.7413 39.5435C72.844 38.3604 73.3593 33.1513 73.594 30.9171C73.6946 29.9645 73.9806 26.8775 74.0833 25.6385C74.5053 20.5675 74.48 16.4319 74.01 13.6693C73.708 11.8914 73.254 10.4321 72.5726 9.04527C71.1366 6.1242 68.814 4.07828 65.2644 2.60708C64.4662 2.27624 62.9808 1.78543 62.063 1.54937C58.9606 0.75118 55.8047 0.332369 50.9194 0.0705433C49.695 0.00495225 28.3118 -0.0284785 25.4799 0.0308073ZM53.9008 2.92687C56.0482 3.08757 57.2818 3.24471 58.8116 3.55238C62.1499 4.22378 64.6304 5.33701 66.4684 6.98867C69.594 9.79707 70.816 14.2018 70.5186 21.5818C70.4246 23.9006 70.328 25.2575 69.8806 30.526C69.6993 32.6606 69.6233 33.6186 69.4446 36.0245C69.4186 36.374 69.3746 37.0558 69.3473 37.5397C69.1293 41.3513 69.024 42.4407 68.7073 44.1867C67.914 48.5525 66.3483 51.6658 63.9203 53.7047C61.8839 55.4147 59.2016 56.4626 55.5138 56.9889C52.4242 57.4297 49.726 57.5003 35.8414 57.5029C25.3519 57.5049 22.7888 57.4489 20.1035 57.159C15.2245 56.6323 12.0696 55.377 9.74193 53.0361C8.39706 51.6836 7.42813 50.0546 6.58602 47.7302C5.94332 45.9561 5.35168 42.7241 5.19924 40.1545C5.18413 39.8991 5.14953 39.3053 5.12245 38.8349C4.97465 36.2699 4.81732 34.1715 4.48653 30.355C4.16234 26.6144 4.09343 25.7441 3.97574 23.9034C3.76244 20.5685 3.7558 18.3679 3.95252 16.2055C4.61322 8.94393 7.9924 5.18613 15.2649 3.62579C16.6619 3.32603 18.1154 3.12936 20.2502 2.95116C21.0291 2.88616 35.6396 2.82501 46.3985 2.84178C51.6986 2.85004 53.084 2.86573 53.9008 2.92687ZM53.9374 5.19635C53.8918 5.37783 53.5236 6.96687 53.1192 8.7276C52.7146 10.4883 52.3523 12.0609 52.3139 12.2222C52.2368 12.5455 52.0128 13.5178 50.6023 19.6513C50.0768 21.9362 49.6155 23.9376 49.5771 24.0989C49.5387 24.2602 49.3505 25.074 49.1588 25.9073C48.3477 29.4341 48.2267 29.9354 48.0917 30.3305C47.1394 33.1169 45.5615 35.1416 43.4904 36.2347C42.8977 36.5475 42.2346 36.7917 41.5842 36.9366L41.071 37.0509H37.2588C33.4531 37.0509 33.4457 37.0507 32.9333 36.9377C31.0828 36.5294 29.8239 35.8733 28.6527 34.7067C28.0035 34.06 27.7089 33.6849 27.2659 32.9412C26.7584 32.0891 26.4091 31.1953 26.1695 30.135C25.9735 29.2678 24.8422 24.3843 24.7713 24.0989C24.7445 23.9914 24.6247 23.4745 24.505 22.9503C24.3853 22.4261 23.9332 20.4687 23.5004 18.6005C23.0675 16.7322 22.6151 14.7747 22.4949 14.2505C22.3747 13.7263 22.245 13.1655 22.2067 13.0042C22.117 12.627 21.9884 12.0739 21.7633 11.0981C21.6641 10.6679 21.4523 9.7552 21.2925 9.06973C21.1328 8.38427 20.9394 7.54847 20.8628 7.21247C20.7862 6.87647 20.6407 6.2439 20.5395 5.80681L20.3554 5.01209L20.0584 5.03853C19.7651 5.06463 18.4101 5.17294 16.3646 5.33374C15.7866 5.37919 15.2969 5.43149 15.2764 5.44997C15.2559 5.46849 15.2619 5.80113 15.2896 6.18921C15.3174 6.57728 15.3837 7.5326 15.437 8.31213C15.4903 9.09173 15.5785 10.3784 15.6331 11.1714C15.6878 11.9644 15.7641 13.0861 15.8029 13.664C15.8695 14.6592 15.941 15.704 16.1708 19.0403C16.2254 19.8333 16.3029 20.977 16.3428 21.5818C16.3829 22.1867 16.4364 22.9785 16.4618 23.3413C16.4872 23.7043 16.5307 24.3311 16.5585 24.7343C16.5863 25.1375 16.653 26.1053 16.7067 26.8848C16.7606 27.6644 16.8381 28.8081 16.8789 29.4263C16.948 30.4707 16.9745 30.8577 17.0983 32.6277C17.1236 32.9906 17.2005 34.1233 17.269 35.1447C17.3872 36.9067 17.4313 37.5503 17.5381 39.0792C17.5635 39.4421 17.6403 40.5748 17.7088 41.5963C17.7773 42.6178 17.8541 43.7505 17.8794 44.1134C17.9047 44.4763 17.9488 45.1141 17.9775 45.5308C18.0061 45.9475 18.0503 46.5853 18.0757 46.9482C18.1012 47.3111 18.1559 48.1249 18.1975 48.7565C18.2389 49.3883 18.2951 50.2241 18.3223 50.6138C18.3495 51.0036 18.3923 51.6195 18.4174 51.9823C18.4425 52.3453 18.4979 53.1465 18.5406 53.7631C18.5833 54.3795 18.6271 54.8984 18.638 54.9161C18.649 54.9338 19.1921 54.9621 19.8451 54.9791C20.498 54.9961 22.1181 55.0445 23.4455 55.0866C24.7728 55.1287 25.8647 55.1568 25.8718 55.149C25.8843 55.1355 26.2347 54.0553 27.2437 50.9193C27.4967 50.133 27.9109 48.8463 28.1641 48.0601C28.4173 47.2738 28.7049 46.3665 28.8033 46.044C29.0641 45.1882 29.2581 44.6622 29.4253 44.3578C30.0685 43.1863 31.1916 42.2963 32.6298 41.8182C33.5924 41.4982 33.4808 41.5066 37.0145 41.4865C39.7918 41.4706 40.3167 41.479 40.7906 41.5469C42.351 41.7706 43.5741 42.364 44.5058 43.3493C45.1206 43.9993 45.5109 44.6981 45.7792 45.6285C45.8605 45.9108 46.1176 46.7905 46.3502 47.5835C46.583 48.3765 46.828 49.2123 46.8946 49.4408C47.0476 49.9649 47.2002 50.4841 47.9555 53.0491C48.2906 54.1869 48.5722 55.1245 48.5813 55.1326C48.5974 55.1469 49.244 55.1171 51.1394 55.0147C51.6502 54.9871 52.9478 54.9183 54.023 54.8619C55.0983 54.8054 55.9811 54.7557 55.9848 54.7515C55.992 54.7431 56.0632 53.6438 56.1751 51.8113C56.2146 51.1661 56.2686 50.3083 56.2952 49.9051C56.3218 49.5019 56.3658 48.8201 56.393 48.39C56.4201 47.9599 56.464 47.2671 56.4906 46.8504C56.5171 46.4337 56.5942 45.2131 56.6619 44.1378C56.7296 43.0626 56.8066 41.8529 56.8331 41.4497C56.8905 40.5749 56.9618 39.4494 57.0299 38.3461C57.1053 37.1255 57.2521 34.8246 57.37 33.0187C57.3954 32.6289 57.4396 31.9141 57.4681 31.4302C57.4967 30.9463 57.5521 30.0666 57.5912 29.4752C57.6304 28.8838 57.6842 28.0481 57.7108 27.6179C57.7374 27.1879 57.8042 26.1321 57.8592 25.2719C57.9142 24.4117 57.9919 23.1801 58.0317 22.5349C58.0716 21.8897 58.1257 21.043 58.152 20.6532C58.1784 20.2634 58.2224 19.5816 58.2498 19.1381C58.2773 18.6945 58.344 17.6388 58.398 16.7921C58.4521 15.9453 58.5287 14.7356 58.5682 14.1039C58.6078 13.4722 58.6837 12.2845 58.7369 11.4646C58.79 10.6447 58.8675 9.41307 58.9089 8.7276C58.9503 8.04213 59.0049 7.18433 59.0302 6.82147C59.0554 6.45856 59.0898 5.96047 59.1066 5.71458L59.1371 5.26751L58.9016 5.23848C58.7722 5.22255 58.3693 5.1876 58.0064 5.16087C57.6435 5.13418 57.0386 5.08907 56.6623 5.06063C55.7072 4.98853 54.0772 4.86796 54.046 4.86713C54.0319 4.86673 53.983 5.01488 53.9374 5.19635Z" fill="#636262"/>
</g>
<defs>
<clipPath id="clip0_23_85">
<rect width="74.6667" height="60" fill="white"/>
</clipPath>
</defs>
</svg>
