<svg width="68" height="68" viewBox="0 0 68 68" fill="none" xmlns="http://www.w3.org/2000/svg">
<g clip-path="url(#clip0_23_96)">
<path fill-rule="evenodd" clip-rule="evenodd" d="M31.2745 0.0912522C17.1464 1.27082 5.18384 11.0476 1.28402 24.6017C0.226459 28.2776 -0.0938861 30.9593 0.0226447 35.1618C0.112095 38.3836 0.382604 40.2413 1.18867 43.1659C3.0075 49.7651 6.80922 55.7026 12.0019 60.0546C16.7456 64.03 21.7991 66.4119 27.9986 67.5946C30.0528 67.9864 30.351 68.0063 34.0484 67.9989C37.6852 67.9916 38.0684 67.9656 39.9542 67.5959C47.0267 66.2099 52.634 63.3183 57.579 58.5071C59.6444 56.4977 60.7612 55.1611 62.3093 52.8465C65.0292 48.7803 66.8173 44.1129 67.6321 38.9528C67.9901 36.6872 67.9901 31.5281 67.6323 29.1224C65.5676 15.2371 55.0988 3.88418 41.5896 0.879882C38.2111 0.128558 34.3564 -0.166152 31.2745 0.0912522ZM33.0457 3.72761C33.0063 3.90594 32.839 5.0564 32.6741 6.28437C32.5092 7.51234 32.1223 10.2996 31.8145 12.4782C31.5065 14.6569 30.9881 18.384 30.6626 20.7607C29.3692 30.2005 29.2046 31.2816 29.0369 31.4344C28.9413 31.5216 25.9205 33.8874 22.3245 36.692C18.7283 39.4963 14.8716 42.506 13.754 43.3798C8.22702 47.7013 7.02542 48.6329 6.97933 48.6329C6.95181 48.6329 6.57226 47.839 6.13581 46.8684C2.21252 38.1441 2.44645 28.232 6.7709 19.9684C11.2884 11.3358 19.4064 5.40441 28.8358 3.84659C30.6923 3.54007 31.3195 3.4669 32.4307 3.42771C33.0734 3.4051 33.113 3.4244 33.0457 3.72761ZM39.162 3.85076C51.0113 5.8436 60.7067 14.8358 63.6328 26.547C64.3454 29.3987 64.5389 30.9968 64.5374 34.0126C64.5346 38.9193 63.6537 42.8881 61.604 47.2286C61.2765 47.9218 60.9689 48.4889 60.9203 48.4889C60.8306 48.4889 59.593 47.5326 52.5428 42.0162C50.3725 40.318 46.5225 37.3138 43.9874 35.3404C41.4522 33.3668 39.2448 31.6126 39.0819 31.442C38.8306 31.179 38.6921 30.4632 38.1708 26.7384C37.8326 24.3222 37.3369 20.7895 37.0693 18.8881C36.0305 11.5084 34.9847 3.84587 34.9847 3.61324C34.9847 3.39501 35.1172 3.38004 36.2451 3.47078C36.9384 3.52653 38.2509 3.69751 39.162 3.85076ZM35.7769 40.4688C36.6484 40.8233 38.8847 41.7291 40.7464 42.4819C42.6082 43.2348 46.3677 44.759 49.1009 45.8693C51.8341 46.9798 55.3614 48.4123 56.9394 49.053C58.5176 49.6937 59.8368 50.2461 59.8713 50.2806C59.957 50.3664 58.6746 52.2016 57.55 53.6024C53.8026 58.2704 47.7246 62.1764 41.8753 63.6757C38.8451 64.4521 37.0226 64.6841 33.9764 64.6808C30.9299 64.6773 29.0608 64.4402 26.0993 63.6811C20.2357 62.1783 14.5394 58.5513 10.5512 53.7815C9.29568 52.2798 8.00594 50.405 8.16204 50.3084C8.22332 50.2706 9.17887 49.8717 10.2857 49.422C11.3923 48.9723 13.4323 48.1339 14.8187 47.5588C16.2052 46.9838 19.9971 45.426 23.2452 44.097C26.4934 42.7681 30.2205 41.2371 31.5277 40.6948C32.8349 40.1526 33.9692 39.7348 34.0484 39.7667C34.1276 39.7984 34.9055 40.1144 35.7769 40.4688Z" fill="#636262"/>
</g>
<defs>
<clipPath id="clip0_23_96">
<rect width="68" height="68" fill="white"/>
</clipPath>
</defs>
</svg>
