<svg width="120" height="53" viewBox="0 0 120 53" fill="none" xmlns="http://www.w3.org/2000/svg">
<g clip-path="url(#clip0_22_82)">
<path fill-rule="evenodd" clip-rule="evenodd" d="M55.9011 0.125205C51.4602 0.830865 46.752 2.92303 43.3267 5.71294C41.7477 6.99911 39.3674 9.53557 38.4127 10.9493L37.6495 12.08L18.8247 12.0854C8.47102 12.0886 0 12.1519 0 12.2263C0 12.3008 0.774683 13.132 1.72165 14.0735L3.44311 15.7855L19.4883 15.8306C33.6539 15.8702 35.5241 15.9064 35.455 16.1395C35.4118 16.2847 35.0974 17.2551 34.7558 18.2957L34.1351 20.1879H21.1235C13.9672 20.1879 8.11185 20.2488 8.11185 20.3231C8.11185 20.3974 8.9265 21.2687 9.92235 22.2593L11.7329 24.0603H22.6087H33.4846L33.539 26.1879C33.569 27.358 33.559 28.3496 33.5168 28.3913C33.4748 28.433 29.6261 28.4641 24.9641 28.4608C20.3023 28.4573 16.4102 28.4559 16.315 28.4576C16.2198 28.4594 16.9722 29.2925 17.9871 30.309L19.8323 32.1572H26.978H34.1236L34.7504 34.0494C35.0951 35.09 35.4406 36.0802 35.5181 36.2497C35.6509 36.5396 35.3238 36.5577 29.9564 36.5577H24.2537L26.0989 38.4059L27.9442 40.2541H32.7187H37.4933L38.3647 41.4387C41.079 45.1286 44.3108 47.8826 48.1587 49.7843C50.2535 50.8198 52.3615 51.5401 54.843 52.0685C57.5246 52.6396 62.0442 52.6445 64.8655 52.0793C67.0387 51.6442 69.9975 50.6555 71.705 49.7936C75.1365 48.0623 78.945 44.8175 81.1987 41.7047L82.2495 40.2541H87.021H91.7933L93.639 38.4059L95.484 36.5577H89.8882C86.8102 36.5577 84.2925 36.5139 84.2925 36.4602C84.2925 36.4067 84.57 35.5342 84.9097 34.5213C85.2487 33.5087 85.527 32.5625 85.527 32.4186C85.527 32.1917 86.4758 32.1572 92.7158 32.1572H99.9053L101.71 30.35C102.702 29.3561 103.514 28.5047 103.514 28.4579C103.514 28.411 99.6255 28.3941 94.8727 28.4201L86.232 28.4673V26.264V24.0603H97.1182H108.005L109.815 22.2593C110.811 21.2687 111.626 20.3974 111.626 20.3231C111.626 20.2488 105.76 20.1879 98.5905 20.1879H85.5547L85.4303 19.6196C85.3613 19.3071 85.0778 18.3763 84.801 17.5513C84.5235 16.7265 84.2955 15.9929 84.2947 15.9212C84.2933 15.8498 91.4925 15.7911 100.293 15.7913H116.293L118.147 13.9411L120 12.091H101.096H82.1925L81.876 11.6384C77.7428 5.73336 72.1607 1.95528 65.2439 0.380961C63.7302 0.0363153 57.5285 -0.133367 55.9011 0.125205ZM64.7659 4.16449C72.7864 5.92592 79.44 12.198 81.663 20.0924C84.2873 29.4145 80.5365 39.5455 72.4663 44.9301C68.6119 47.5017 64.6864 48.7006 60.0736 48.7147C55.2595 48.7293 51.1509 47.5052 47.172 44.8715C45.5652 43.8078 42.2538 40.5023 41.2229 38.9329C39.3831 36.1321 38.1713 33.1565 37.6174 30.0793C37.282 28.2156 37.2461 24.4497 37.5468 22.6522C39.1598 13.0086 46.7236 5.48077 56.3846 3.90399C58.5614 3.54878 62.5229 3.67182 64.7659 4.16449ZM41.9111 20.3053C41.8465 20.3697 41.7935 23.0666 41.7935 26.2979V32.1733L42.9838 32.1213L44.1742 32.0692V27.9055C44.1742 25.6154 44.2172 23.7683 44.2696 23.8007C44.3222 23.833 44.957 25.7253 45.6803 28.0054L46.9957 32.1512L48.3221 32.1542L49.6484 32.1572L50.2207 30.353C50.5354 29.3608 51.1409 27.4795 51.5662 26.1725L52.3393 23.7963L52.3568 27.9767L52.3741 32.1572H53.6086H54.843V26.1662V20.1752L53.1236 20.2255L51.4043 20.2759L50.7837 22.1241C50.4425 23.1406 49.7715 25.2194 49.2928 26.7437C48.814 28.2681 48.3705 29.4562 48.307 29.384C48.2437 29.3119 47.6988 27.7083 47.0962 25.8205C46.4939 23.9327 45.8411 21.8932 45.6463 21.288L45.2917 20.1879H43.6601C42.7629 20.1879 41.9757 20.2407 41.9111 20.3053ZM57.6058 20.3053C57.541 20.3697 57.4882 23.0628 57.4882 26.29V32.1572H58.7226H59.9569V26.1725V20.1879H58.8402C58.2258 20.1879 57.6703 20.2407 57.6058 20.3053ZM62.7785 26.1725V32.1572H63.9248H65.071V28.0208C65.071 25.7457 65.1304 23.8864 65.2032 23.8892C65.276 23.8919 65.8316 24.8225 66.4376 25.9575C67.0439 27.0923 68.0621 28.9513 68.7001 30.089L69.8605 32.1572H71.3476H72.8348L72.7883 26.2165L72.7419 20.2759H71.5957H70.4494L70.3613 24.4961L70.2731 28.7164L68.792 25.9923C67.9773 24.494 66.9208 22.5752 66.4442 21.7281L65.5776 20.1879H64.1779H62.7785V26.1725ZM75.4755 26.1725V32.1572H76.71H77.9438V26.1725V20.1879H76.71H75.4755V26.1725Z" fill="#636262"/>
</g>
<defs>
<clipPath id="clip0_22_82">
<rect width="120" height="52.5" fill="white"/>
</clipPath>
</defs>
</svg>
