<svg width="86" height="68" viewBox="0 0 86 68" fill="none" xmlns="http://www.w3.org/2000/svg">
<g clip-path="url(#clip0_22_79)">
<path fill-rule="evenodd" clip-rule="evenodd" d="M40.8026 0.0416994C30.6403 0.649794 21.6663 5.37503 15.4916 13.3692C12.8102 16.8407 10.6975 21.1871 9.57893 25.5337L9.30595 26.5943L5.9651 26.6351C3.64018 26.6636 2.57453 26.7048 2.46084 26.7709C2.1965 26.9246 1.91818 27.2595 1.01464 28.5117C-0.0713456 30.0166 -0.069792 30.0137 0.056054 30.3173C0.110933 30.4495 0.232614 30.5988 0.326448 30.649C0.424201 30.7012 2.22573 30.848 4.54143 30.9927L8.58576 31.245L8.572 31.4898C8.51828 32.4493 8.55538 36.0815 8.62739 36.9155C9.0035 41.2681 10.1993 45.4623 12.1749 49.3581C16.7899 58.4591 25.197 64.9874 35.1725 67.216C38.8936 68.0473 43.2671 68.2276 47.1317 67.7087C59.9789 65.9839 70.7954 56.9963 74.8621 44.6672C75.1212 43.8816 75.4346 42.8258 75.5586 42.3209L75.7837 41.403L78.9752 41.4026C80.8172 41.4023 82.2883 41.3682 82.4553 41.3218C82.8278 41.2184 83.0567 40.9681 84.1077 39.5111C85.1375 38.0839 85.1647 38.036 85.1005 37.7799C84.9796 37.2972 85.0695 37.3124 80.6306 37.0253C78.376 36.8794 76.531 36.7583 76.531 36.7562C76.531 36.7541 76.531 35.5867 76.531 34.1618C76.531 31.3729 76.466 30.5146 76.0814 28.2262C75.3123 23.6488 73.5029 19.0959 70.9094 15.2125C65.1632 6.60786 55.9443 1.09585 45.7434 0.165635C43.9415 0.0013119 42.2051 -0.0422572 40.8026 0.0416994ZM44.4776 4.89218C49.4893 5.13336 54.9782 7.10475 59.3886 10.2475C60.8076 11.2587 61.7814 12.092 63.1823 13.4938C67.3111 17.6254 70.135 22.8711 71.2182 28.4214C71.6385 30.5751 71.7065 31.3351 71.7099 33.9102C71.7115 35.2415 71.6852 36.3585 71.6514 36.3923C71.6175 36.4262 66.5276 36.1316 60.3407 35.7376C54.1538 35.3437 48.6965 35.0018 48.2137 34.9778C47.7309 34.9539 47.3362 34.912 47.3366 34.8846C47.337 34.8573 49.7225 33.2043 52.6378 31.2113C55.8833 28.9926 57.972 27.5139 58.025 27.3973C58.1206 27.1879 58.0356 26.8613 57.8553 26.7451C57.7964 26.707 47.9668 26.6576 36.0117 26.6351L14.2755 26.5943L14.6185 25.4904C16.0646 20.8369 18.6318 16.684 22.2339 13.1709C23.7189 11.7225 24.8527 10.8047 26.5112 9.70844C29.1997 7.93137 31.7749 6.73326 34.6514 5.92127C37.3566 5.15775 40.6393 4.721 42.926 4.82038C43.2628 4.83498 43.961 4.86729 44.4776 4.89218ZM25.6538 32.3076C31.8971 32.6886 37.185 33.0277 37.4049 33.061L37.8045 33.1216L32.5458 36.7428C29.6534 38.7345 27.2412 40.4212 27.185 40.4912C27.011 40.708 27.0629 41.0491 27.2981 41.2339L27.5133 41.403H49.1435C61.0402 41.403 70.7738 41.4333 70.7738 41.4703C70.7738 41.6706 70.2038 43.3993 69.7854 44.4681C67.7037 49.7851 64.0408 54.4655 59.3621 57.7869C55.0341 60.8592 50.11 62.6723 44.9008 63.1116C43.455 63.2335 40.1508 63.1657 38.8835 62.988C36.3138 62.628 33.8985 61.9839 31.6408 61.0567C22.0097 57.1015 15.0912 48.2876 13.6112 38.0876C13.3167 36.0578 13.2206 33.0318 13.4113 31.7955L13.4524 31.53L13.8773 31.5723C14.1111 31.5956 19.4104 31.9265 25.6538 32.3076Z" fill="#636262"/>
</g>
<defs>
<clipPath id="clip0_22_79">
<rect width="85.3778" height="68" fill="white"/>
</clipPath>
</defs>
</svg>
