<svg width="90" height="58" viewBox="0 0 90 58" fill="none" xmlns="http://www.w3.org/2000/svg">
<g clip-path="url(#clip0_22_70)">
<path fill-rule="evenodd" clip-rule="evenodd" d="M43.6962 0.00469326C37.2762 0.151192 31.2669 1.07049 25.6631 2.76339C16.2902 5.59493 8.84636 10.3477 4.37013 16.3589C0.368664 21.7324 -0.936315 28.0019 0.668128 34.1448C1.25047 36.3743 2.38558 38.8322 3.76388 40.8481C5.88264 43.947 8.66121 46.632 12.2626 49.0607C18.7354 53.4258 27.386 56.3827 36.7347 57.4257C39.7983 57.7675 42.2798 57.887 45.5651 57.851C48.112 57.823 49.5421 57.7479 51.8081 57.5229C64.458 56.267 75.5428 51.6675 82.3667 44.8432C85.9603 41.2492 88.2013 37.2638 89.0826 32.8971C89.3488 31.5792 89.4446 30.5317 89.442 28.9613C89.4394 27.5808 89.3964 27.0065 89.2041 25.8206C88.5375 21.704 86.6096 17.8764 83.3979 14.2915C82.8103 13.6355 81.3883 12.2416 80.7165 11.6626C77.6231 8.99749 73.9659 6.74929 69.7873 4.94358C63.1356 2.06967 55.4508 0.394334 47.3943 0.0618209C46.3187 0.0174142 44.4223 -0.0118847 43.6962 0.00469326ZM47.5136 3.83655C55.8672 4.15905 63.3705 6.01562 67.3952 8.75597C68.9882 9.84066 69.9165 10.9433 70.2649 12.1654C70.3941 12.6197 70.3961 13.4161 70.2682 13.8838C70.0521 14.6741 69.6169 15.3705 68.8674 16.1232C67.0237 17.9753 63.6692 19.5255 59.1101 20.6323C57.8956 20.9272 55.2887 21.4422 55.2428 21.3963C55.2371 21.3906 55.1859 21.127 55.129 20.8105C53.7342 13.0544 50.792 7.35281 47.2323 5.5081C46.3738 5.06316 45.616 4.86948 44.7348 4.86967C44.1332 4.86983 43.6613 4.94569 43.1002 5.13242C39.1442 6.44901 35.782 12.5144 34.2926 21.0212L34.2246 21.4099L34.0992 21.3884C31.4088 20.928 29.38 20.4478 27.4326 19.8105C24.312 18.7892 22.0203 17.554 20.5913 16.123C19.8566 15.3873 19.4647 14.7671 19.2152 13.9451C19.123 13.6413 19.1089 13.5234 19.1064 13.0393C19.1041 12.5725 19.1184 12.4315 19.1948 12.1654C19.5465 10.9398 20.4753 9.83668 22.0649 8.75668C22.7674 8.27936 23.2204 8.02209 24.1841 7.55319C29.6927 4.87285 38.4049 3.48492 47.5136 3.83655ZM45.3857 11.2303C45.7396 11.3208 46.253 11.5804 46.5888 11.8388C46.9117 12.0872 47.5333 12.7453 47.8191 13.1413C49.1191 14.9424 50.1758 17.7754 50.8334 21.2226C50.9049 21.5977 50.9522 21.916 50.9384 21.9298C50.9124 21.9559 49.6535 22.049 48.2094 22.1318C47.0796 22.1965 42.4283 22.197 41.2905 22.1325C40.1334 22.067 38.5975 21.9623 38.5429 21.9453C38.4545 21.9178 38.8844 19.8462 39.2433 18.5704C39.9374 16.1036 40.931 13.952 41.9172 12.7808C42.176 12.4735 42.6968 11.9685 42.9407 11.7884C43.7119 11.2188 44.5726 11.0224 45.3857 11.2303ZM11.3266 15.4743C11.4872 16.1961 12.0897 17.508 12.6467 18.3486C14.7826 21.5724 18.5853 24.254 23.7423 26.173C25.8279 26.9492 27.956 27.5421 30.5542 28.0709C31.335 28.2298 33.2704 28.5637 33.4106 28.5637H33.5057L33.5285 30.7006C33.5578 33.4426 33.6633 35.0832 33.9573 37.3695C34.8895 44.6188 37.3205 50.8445 40.4903 54.1004C40.7233 54.3397 40.803 54.4445 40.7521 54.4445C40.5971 54.4445 39.1879 54.3201 38.4672 54.2427C26.8737 52.9993 16.8348 48.1108 11.1635 40.9475C10.0463 39.5364 9.21529 38.2235 8.44567 36.654C7.33834 34.3956 6.71914 32.2646 6.43558 29.7365C6.36724 29.127 6.34048 26.9266 6.39352 26.2778C6.62548 23.4413 7.36245 21.0331 8.72261 18.6664C9.19498 17.8446 9.90354 16.815 10.4477 16.1601C10.8722 15.649 11.2261 15.2457 11.2501 15.2457C11.2642 15.2457 11.2986 15.3485 11.3266 15.4743ZM78.5533 15.6135C81.2346 18.7017 82.7293 22.1972 83.0617 26.1586C83.1131 26.7747 83.1137 28.5501 83.0623 29.2396C82.8688 31.8311 82.1867 34.2798 80.9749 36.7334C79.5343 39.6516 77.5549 42.1663 74.7122 44.6913C73.4914 45.7757 71.4947 47.2174 69.8413 48.2082C64.5956 51.3517 58.2047 53.4239 51.3494 54.2038C50.6526 54.2831 48.8948 54.4436 48.7166 54.4442C48.643 54.4444 48.6843 54.3865 48.9506 54.1165C52.2129 50.8067 54.7126 44.2614 55.5818 36.7534C55.8318 34.5929 55.9075 33.308 55.9385 30.6938L55.9634 28.5899L56.9779 28.4221C60.9098 27.7714 64.3545 26.8065 67.4222 25.4966C68.1654 25.1795 69.7185 24.4088 70.4038 24.0174C73.7383 22.1135 76.1914 19.7521 77.4495 17.2363C77.7619 16.6119 78.0396 15.8956 78.1335 15.4743C78.1618 15.3485 78.1959 15.2457 78.2094 15.2457C78.2229 15.2457 78.3778 15.4112 78.5533 15.6135ZM38.6667 29.1388C42.0877 29.4171 47.3417 29.4166 50.8082 29.1376C51.2315 29.1035 51.5862 29.084 51.5964 29.0942C51.6268 29.1246 51.5337 30.7424 51.4474 31.6845C50.8272 38.4533 48.551 44.0595 45.9031 45.3398C45.4205 45.573 45.1724 45.6357 44.7301 45.6357C44.2882 45.6357 44.0401 45.5732 43.557 45.3403C41.7073 44.4488 39.9853 41.3904 38.9123 37.0912C38.3698 34.9177 38.0224 32.5144 37.8921 30.0347C37.841 29.0624 37.8408 29.0805 37.9013 29.0805C37.9289 29.0805 38.2734 29.1068 38.6667 29.1388Z" fill="#636262"/>
</g>
<defs>
<clipPath id="clip0_22_70">
<rect width="90" height="57.8571" fill="white"/>
</clipPath>
</defs>
</svg>
