<svg width="68" height="68" viewBox="0 0 68 68" fill="none" xmlns="http://www.w3.org/2000/svg">
<g clip-path="url(#clip0_22_73)">
<path fill-rule="evenodd" clip-rule="evenodd" d="M32.0272 0.03299C28.0319 0.293408 24.5299 1.09966 20.8965 2.5955C19.8399 3.0305 17.6165 4.14842 16.6406 4.73545C10.9578 8.15343 6.4895 12.9531 3.58612 18.758C1.61205 22.7048 0.514631 26.6139 0.0864257 31.2241C-0.0766663 32.9793 -0.00101321 36.293 0.24672 38.248C1.4958 48.1052 6.96706 56.9035 15.247 62.37C20.6503 65.9373 26.6854 67.8245 33.2176 67.9893C40.8063 68.1807 48.2545 65.8027 54.3482 61.2428C56.207 59.8518 57.7698 58.4106 59.5313 56.4629C59.9573 55.992 60.8309 54.907 61.353 54.2004C66.8353 46.7817 69.0492 37.5262 67.5347 28.3564C66.7066 23.3427 64.7232 18.5388 61.7432 14.3287L61.2654 13.6536L62.032 12.8852C62.4536 12.4627 62.827 12.1168 62.8617 12.1168C63.0467 12.1168 64.9717 15.017 65.7756 16.5068L65.9442 16.8193H66.5895H67.2348V8.81325V0.807281H59.1992H51.1637V1.41859V2.02991L51.9381 2.46973C52.9539 3.04675 54.2239 3.86479 55.1737 4.55397L55.9387 5.10909L55.1308 5.91694L54.323 6.72475L54.0677 6.53225C53.9273 6.42635 53.3571 6.03558 52.8006 5.66397C48.0997 2.52467 42.8599 0.676326 37.0866 0.120788C35.9513 0.0115612 33.1121 -0.0377247 32.0272 0.03299ZM36.6402 8.51624C44.9092 9.39511 52.1298 14.1201 56.2873 21.3729C56.9591 22.5448 57.6041 23.9642 58.1673 25.5097C58.3575 26.0321 58.8421 27.6621 58.8421 27.7799C58.8421 27.8085 47.865 27.8312 33.9915 27.8312C19.1283 27.8312 9.14079 27.8095 9.14079 27.7771C9.14079 27.6836 9.54282 26.343 9.78512 25.6288C11.5787 20.3414 15.2716 15.6193 20.0419 12.5131C23.7687 10.0865 27.9571 8.71858 32.6224 8.40442C33.3219 8.35728 35.7912 8.42603 36.6402 8.51624ZM27.0273 30.8356C28.6566 31.1796 29.7282 32.1025 30.0027 33.3981C30.1129 33.9185 30.1129 34.1244 30.0027 34.6468C29.8253 35.4881 29.3081 36.2071 28.5481 36.6688C28.1156 36.9315 27.2826 37.2079 26.6489 37.2991C25.9335 37.402 24.489 37.3402 23.8428 37.1788C23.0556 36.9825 22.4175 36.6447 21.9475 36.1757C21.3125 35.5421 21.0452 34.9042 21.0452 34.0218C21.0452 32.3026 22.2655 31.1231 24.4083 30.7707C25.0265 30.6691 26.3996 30.7031 27.0273 30.8356ZM54.9138 30.7744C55.9189 30.9259 56.8221 31.3213 57.3779 31.853C57.967 32.4167 58.2489 33.0332 58.2929 33.8551C58.3447 34.8202 58.0419 35.5861 57.3535 36.2318C56.4776 37.0533 55.247 37.4031 53.4638 37.3374C52.3845 37.2975 51.8484 37.1753 51.0653 36.7902C49.5957 36.0675 48.927 34.5237 49.4388 33.0359C49.832 31.8931 50.9811 31.0498 52.4732 30.8091C52.7187 30.7695 52.9598 30.7294 53.0089 30.7197C53.2753 30.6675 54.4236 30.7005 54.9138 30.7744ZM15.7477 31.3134V31.8193H15.0037C14.5945 31.8193 14.2597 31.8334 14.2597 31.8507C14.2597 31.8801 15.192 33.5948 16.0002 35.0516C16.1962 35.4051 16.37 35.6812 16.3862 35.665C16.4024 35.6488 16.879 34.7769 17.4451 33.7275L18.4745 31.8193H17.8551H17.2358V31.3126V30.806L19.4233 30.8216L21.6108 30.8372V31.3134V31.7895L20.8553 31.8062C20.2024 31.8206 20.0952 31.8368 20.0662 31.9252C20.0477 31.9816 19.408 33.1795 18.6446 34.5872L17.2567 37.1467L15.5308 37.1625L13.805 37.1783L13.3392 36.3291C13.083 35.8621 12.4185 34.6564 11.8625 33.6497L10.8517 31.8193H10.1152H9.37886V31.3134V30.8074H12.5633H15.7477V31.3134ZM36.3128 31.3134V31.7895L35.5836 31.8063L34.8545 31.823V33.9987V36.1744L35.8813 36.1546L36.9081 36.1348L37.2873 35.9292C37.7965 35.6532 38.098 35.2556 38.2324 34.6827L38.3317 34.2598H38.7954H39.2592V35.7181V37.1765H34.8545H30.4499V36.6706V36.1646H31.1939H31.9379V33.992V31.8193H31.1939H30.4499V31.3129V30.8063L33.3813 30.8218L36.3128 30.8372V31.3134ZM44.0085 31.2985L43.9912 31.7895L43.2387 31.8062L42.4862 31.8228L43.5363 33.7533C44.1139 34.8151 44.5998 35.6847 44.6162 35.6856C44.6326 35.6866 44.8133 35.3729 45.0178 34.9885C45.2224 34.6041 45.674 33.7673 46.0215 33.1288C46.369 32.4905 46.6662 31.9357 46.6819 31.8959C46.7031 31.8427 46.5485 31.8192 46.0949 31.8066L45.4793 31.7895V31.3134V30.8372L47.6667 30.8216L49.8542 30.806V31.3126V31.8193L49.125 31.8194L48.3959 31.8195L48.2401 32.1021C48.1544 32.2576 47.5018 33.4633 46.7897 34.7815L45.4952 37.1783L43.7687 37.1625L42.0423 37.1467L40.5764 34.483L39.1105 31.8193H38.3813H37.6521V31.3134V30.8074H40.8389H44.0258L44.0085 31.2985ZM25.0618 31.8117C24.5191 32.0581 24.1451 32.6749 24.0202 33.5294C23.8463 34.7181 24.2768 35.9011 25.0035 36.2321C25.3227 36.3775 25.8092 36.3749 26.1007 36.2262C27.1552 35.6881 27.4636 33.4623 26.6478 32.2766C26.2995 31.7702 25.6026 31.566 25.0618 31.8117ZM53.2762 31.8113C52.6485 32.0965 52.2381 32.9759 52.236 34.0397C52.2342 34.9778 52.5463 35.7734 53.0561 36.1307C53.2655 36.2775 53.3836 36.3137 53.7109 36.3311C54.0441 36.3488 54.1543 36.3287 54.3779 36.2093C54.7009 36.0368 54.9749 35.6932 55.1596 35.229C55.2808 34.9245 55.2968 34.7818 55.2985 33.992C55.3002 33.2005 55.2851 33.0614 55.1661 32.767C54.9953 32.3447 54.661 31.9532 54.3515 31.8125C54.0439 31.6728 53.5822 31.6723 53.2762 31.8113ZM58.8421 40.2095C58.8421 40.2407 58.7229 40.6778 58.5772 41.1808C57.5934 44.5776 55.9549 47.6296 53.5586 50.5287C52.9662 51.2455 51.2319 52.9743 50.4792 53.5985C46.162 57.1785 41.202 59.1681 35.6283 59.5559C30.4397 59.9168 24.9399 58.5426 20.5399 55.7858C15.0201 52.3272 11.1104 47.1555 9.35121 40.9851C9.23546 40.5791 9.14079 40.2258 9.14079 40.1999C9.14079 40.1739 20.3235 40.1527 33.9915 40.1527C49.724 40.1527 58.8421 40.1736 58.8421 40.2095Z" fill="#636262"/>
</g>
<defs>
<clipPath id="clip0_22_73">
<rect width="68" height="68" fill="white"/>
</clipPath>
</defs>
</svg>
