<svg width="68" height="68" viewBox="0 0 68 68" fill="none" xmlns="http://www.w3.org/2000/svg">
<g clip-path="url(#clip0_22_76)">
<path fill-rule="evenodd" clip-rule="evenodd" d="M32.5088 0.0336333C28.7039 0.218069 25.2146 0.940508 21.8105 2.24862C11.8628 6.07146 4.27001 14.3502 1.32234 24.5878C-0.0659356 29.4092 -0.367297 34.5547 0.447635 39.521C2.62865 52.8118 12.4574 63.5709 25.4899 66.9333C33.305 68.9497 41.7092 68.0859 48.924 64.5249C58.6905 59.7045 65.5648 50.5121 67.4039 39.8133C67.7648 37.714 67.882 36.2897 67.882 34.0036C67.882 32.2608 67.8296 31.3052 67.6554 29.866C66.0169 16.3362 56.3621 5.03359 43.2534 1.2989C39.8339 0.324741 35.9466 -0.133062 32.5088 0.0336333ZM36.8107 5.17716C43.7897 5.92397 49.9097 8.89062 54.7217 13.8595C61.7095 21.0751 64.4431 31.3198 61.9921 41.1066C60.9344 45.3296 58.9547 49.1974 56.0816 52.6539C55.3276 53.561 53.4834 55.4075 52.5776 56.1626C48.1578 59.8461 42.9449 62.1104 37.3767 62.7648C29.3281 63.7109 21.3302 61.2832 15.1596 56.0208C14.2789 55.2698 12.5433 53.5179 11.8238 52.6539C6.63369 46.4207 4.29446 38.5882 5.22973 30.5745C6.17395 22.4833 10.5745 15.0875 17.2581 10.3585C21.6165 7.27477 26.6039 5.49513 31.9999 5.09838C32.954 5.0282 35.864 5.07587 36.8107 5.17716ZM32.7069 9.49597C31.115 9.58868 28.405 10.0046 28.405 10.1563C28.405 10.2325 34.2456 26.7663 34.2919 26.8212C34.3269 26.8626 40.2403 10.5513 40.2562 10.3696C40.2707 10.2056 37.8324 9.72649 36.2163 9.57576C35.5193 9.51078 33.314 9.46061 32.7069 9.49597ZM21.669 12.7637C19.7807 13.8975 18.1269 15.1722 16.7025 16.5918C15.6463 17.6443 15.2534 18.1095 15.2927 18.2601C15.3595 18.5156 25.604 45.055 25.6362 45.0556C25.6544 45.0559 26.4419 42.8626 27.3862 40.1814L29.1031 35.3067L34.1988 35.3212L39.2944 35.3356L40.9529 40.1251C41.865 42.7592 42.6318 44.9619 42.6567 45.0199C42.6894 45.0962 44.0879 41.4203 47.7027 31.7568C50.4531 24.4041 52.7138 18.3607 52.7264 18.3271C52.7824 18.1787 51.083 16.4035 49.9344 15.4106C48.9371 14.5484 46.7428 12.9754 46.5375 12.9754C46.5066 12.9754 44.9167 17.3752 43.0045 22.7528L39.5277 32.5303L34.378 32.5159L29.2284 32.5016L25.6043 22.569C23.6112 17.1062 21.9549 12.6384 21.9238 12.6407C21.8927 12.6429 21.7781 12.6982 21.669 12.7637ZM10.9835 25.445C10.7775 25.9702 10.3657 27.316 10.177 28.0806C8.5402 34.7129 9.72498 41.7321 13.4405 47.415C15.4166 50.4374 18.0828 53.0322 21.1408 54.9091C21.5419 55.1552 21.9771 55.4113 22.108 55.4782L22.3459 55.5997L22.2859 55.4433C22.2529 55.3573 19.7292 48.5916 16.6776 40.4085C13.6259 32.2253 11.1089 25.479 11.0842 25.4166C11.0414 25.3091 11.0363 25.3104 10.9835 25.445ZM56.9909 26.0401C56.5834 27.0671 46.01 55.2885 46.0216 55.3184C46.0383 55.3619 46.7644 54.9309 47.5305 54.4227C48.771 53.5996 50.1083 52.5018 51.2234 51.3915C56.8951 45.7445 59.436 37.7649 58.0919 29.8206C57.8902 28.6284 57.4016 26.7224 57.1154 26.0117L57.0583 25.8701L56.9909 26.0401ZM31.05 49.3218C29.3137 53.9119 27.8937 57.6958 27.8943 57.7306C27.8958 57.8054 29.2578 58.1053 30.3012 58.2606C33.1432 58.6835 36.06 58.6061 38.874 58.0333C39.6822 57.8688 40.2833 57.7232 40.3243 57.6822C40.3517 57.6548 34.2727 40.9751 34.2355 40.9756C34.2198 40.9758 32.7863 44.7316 31.05 49.3218Z" fill="#636262"/>
</g>
<defs>
<clipPath id="clip0_22_76">
<rect width="68" height="68" fill="white"/>
</clipPath>
</defs>
</svg>
