<svg width="147" height="28" viewBox="0 0 147 28" fill="none" xmlns="http://www.w3.org/2000/svg">
<mask id="mask0_16_29" style="mask-type:luminance" maskUnits="userSpaceOnUse" x="0" y="0" width="27" height="27">
<path d="M26.2457 0H0V26.2457H26.2457V0Z" fill="white"/>
</mask>
<g mask="url(#mask0_16_29)">
<path d="M11.2024 25.7793C10.9551 25.1104 10.7704 24.42 10.6506 23.7169L8.555 23.1724V20.3164L10.6506 19.7704C10.7706 19.0669 10.9553 18.3761 11.2024 17.7066L9.66142 16.1889L11.088 13.7166L13.1778 14.2959C13.6339 13.7479 14.139 13.2429 14.687 12.7868C14.4939 12.0897 14.3008 11.3931 14.1077 10.697L16.5827 9.26899C17.0896 9.78069 17.5965 10.2938 18.1035 10.8085C18.7728 10.561 19.4637 10.3763 20.1672 10.2567L20.7104 8.16106H23.5649C23.7474 8.85907 23.9294 9.55764 24.1109 10.2567C24.8143 10.3767 25.5052 10.5614 26.1747 10.8085L26.2457 10.736V1.72635C26.2426 1.26943 26.0597 0.832084 25.7367 0.50899C25.4136 0.185894 24.9763 0.0030361 24.5193 0H12.0757L12.3364 0.450414L11.2401 1.53083C11.4155 2.00682 11.5469 2.49792 11.6326 2.99793L13.1229 3.38607V5.41366L11.6326 5.80324C11.5471 6.30377 11.4157 6.79535 11.2401 7.27179L12.3364 8.35072L11.3226 10.109L9.83526 9.70344C9.51082 10.093 9.15163 10.4523 8.76208 10.7766C8.90013 11.2719 9.03675 11.7673 9.17192 12.2625L7.41372 13.2763C7.05455 12.9095 6.6949 12.544 6.33476 12.18C5.85823 12.3546 5.36663 12.485 4.8662 12.5696L4.47951 14.0598H2.45193C2.32255 13.5635 2.19318 13.0669 2.06379 12.5696C1.5628 12.4841 1.07073 12.3527 0.593793 12.1771L0 12.7796V24.5193C0.0030361 24.9763 0.185894 25.4136 0.50899 25.7367C0.832084 26.0597 1.26943 26.2426 1.72635 26.2457H10.7303L11.2024 25.7793Z" fill="#D43228"/>
<path d="M26.2456 24.5193V14.2974C24.5971 13.3872 22.6931 13.0501 20.8323 13.3388C18.9715 13.6276 17.2591 14.526 15.9639 15.8929C14.6687 17.2598 13.8639 19.018 13.6759 20.8917C13.4877 22.7654 13.9269 24.6485 14.9245 26.2456H24.5193C24.9762 26.2426 25.4136 26.0597 25.7366 25.7366C26.0598 25.4135 26.2426 24.9762 26.2456 24.5193Z" fill="#D43228"/>
<path d="M0 1.72635V9.35583C1.25168 10.2336 2.78946 10.6045 4.30366 10.3939C5.81788 10.1833 7.19605 9.4068 8.16066 8.22074C9.12526 7.03472 9.60469 5.52725 9.50243 4.00188C9.40009 2.47653 8.72365 1.04658 7.60924 0H1.72635C1.26942 0.0030361 0.832084 0.185894 0.50899 0.50899C0.185894 0.832084 0.0030361 1.26943 0 1.72635Z" fill="#D43228"/>
</g>
<path d="M39.1255 7.33922L38.1763 15.6274H35.0337L37.2272 0.126587L43.407 9.65907L49.5869 0.126587L51.7803 15.6274H48.6377L47.6886 7.33922L43.407 14.2566L39.1255 7.33922Z" fill="white"/>
<path d="M56.0877 15.6273V13.0755H63.533V15.6273H56.0877ZM56.0877 3.41646V0.864624H63.533V3.41646H56.0877ZM56.0877 9.0474V6.53772H63.1112V9.0474H56.0877ZM54.1472 0.864624H57.0579V15.6273H54.1472V0.864624Z" fill="white"/>
<path d="M68.9311 8.2461C68.9311 9.21622 69.149 10.0668 69.5849 10.7979C70.0349 11.5149 70.6184 12.0703 71.3355 12.464C72.0526 12.8436 72.833 13.0334 73.6767 13.0334C74.3798 13.0334 75.0055 12.942 75.5538 12.7592C76.1022 12.5764 76.5943 12.3304 77.0302 12.0211C77.4802 11.7118 77.8669 11.3743 78.1903 11.0088V14.4042C77.5856 14.8823 76.9248 15.2548 76.2077 15.522C75.5046 15.7891 74.6118 15.9227 73.5291 15.9227C72.4041 15.9227 71.3566 15.7399 70.3864 15.3743C69.4303 15.0088 68.5936 14.4815 67.8765 13.7926C67.1735 13.1037 66.6251 12.2952 66.2314 11.3673C65.8517 10.4253 65.6619 9.38487 65.6619 8.2461C65.6619 7.10723 65.8517 6.07384 66.2314 5.1459C66.6251 4.2039 67.1735 3.38843 67.8765 2.6995C68.5936 2.01058 69.4303 1.48334 70.3864 1.11779C71.3566 0.752234 72.4041 0.569458 73.5291 0.569458C74.6118 0.569458 75.5046 0.703026 76.2077 0.970159C76.9248 1.23729 77.5856 1.60988 78.1903 2.08791V5.48333C77.8669 5.11778 77.4802 4.78034 77.0302 4.47103C76.5943 4.16172 76.1022 3.91567 75.5538 3.7329C75.0055 3.55012 74.3798 3.45873 73.6767 3.45873C72.833 3.45873 72.0526 3.65557 71.3355 4.04924C70.6184 4.42885 70.0349 4.97718 69.5849 5.69423C69.149 6.41128 68.9311 7.26189 68.9311 8.2461Z" fill="white"/>
<path d="M82.1826 9.13177V6.41119H93.0239V9.13177H82.1826ZM91.1041 0.864624H94.1208V15.6273H91.1041V0.864624ZM81.1912 0.864624H84.2071V15.6273H81.1912V0.864624Z" fill="white"/>
<path d="M99.3442 12.2741L99.7029 9.89102H106.789L107.148 12.2741H99.3442ZM103.204 5.65201L100.989 10.7346L101.053 11.4094L99.1125 15.6274H95.7163L103.204 0L110.692 15.6274H107.275L105.377 11.536L105.418 10.7768L103.204 5.65201Z" fill="white"/>
<path d="M122.797 0.86472H125.708V16.3655L115.204 6.47455V15.6274H112.293V0.126587L122.797 10.0176V0.86472Z" fill="white"/>
<path d="M128.915 0.864624H131.973V15.6273H128.915V0.864624Z" fill="white"/>
<path d="M137.581 8.2461C137.581 9.21622 137.8 10.0668 138.235 10.7979C138.685 11.5149 139.269 12.0703 139.985 12.464C140.703 12.8436 141.483 13.0334 142.327 13.0334C143.03 13.0334 143.656 12.942 144.204 12.7592C144.752 12.5764 145.245 12.3304 145.681 12.0211C146.131 11.7118 146.517 11.3743 146.841 11.0088V14.4042C146.236 14.8823 145.575 15.2548 144.858 15.522C144.155 15.7891 143.262 15.9227 142.179 15.9227C141.054 15.9227 140.007 15.7399 139.036 15.3743C138.081 15.0088 137.243 14.4815 136.527 13.7926C135.824 13.1037 135.275 12.2952 134.882 11.3673C134.502 10.4253 134.312 9.38487 134.312 8.2461C134.312 7.10723 134.502 6.07384 134.882 5.1459C135.275 4.2039 135.824 3.38843 136.527 2.6995C137.243 2.01058 138.081 1.48334 139.036 1.11779C140.007 0.752234 141.054 0.569458 142.179 0.569458C143.262 0.569458 144.155 0.703026 144.858 0.970159C145.575 1.23729 146.236 1.60988 146.841 2.08791V5.48333C146.517 5.11778 146.131 4.78034 145.681 4.47103C145.245 4.16172 144.752 3.91567 144.204 3.7329C143.656 3.55012 143.03 3.45873 142.327 3.45873C141.483 3.45873 140.703 3.65557 139.985 4.04924C139.269 4.42885 138.685 4.97718 138.235 5.69423C137.8 6.41128 137.581 7.26189 137.581 8.2461Z" fill="white"/>
<path d="M35.0337 22.1998H35.8678V26.3351H35.0337V22.1998ZM35.5412 22.9147V22.1998H36.3519C36.6747 22.1998 36.9488 22.253 37.1743 22.3594C37.4037 22.4657 37.5787 22.6173 37.6993 22.8143C37.8198 23.0111 37.8801 23.2454 37.8801 23.5172C37.8801 23.785 37.8198 24.0194 37.6993 24.2202C37.5787 24.4171 37.4037 24.5688 37.1743 24.6751C36.9488 24.7814 36.6747 24.8346 36.3519 24.8346H35.5412V24.1198H36.3519C36.5735 24.1198 36.7486 24.0686 36.8769 23.9662C37.0052 23.8638 37.0693 23.7142 37.0693 23.5172C37.0693 23.3164 37.0052 23.1668 36.8769 23.0682C36.7486 22.9658 36.5735 22.9147 36.3519 22.9147H35.5412Z" fill="white"/>
<path d="M46.2073 26.3351V25.6203H48.2662V26.3351H46.2073ZM46.2073 22.9147V22.1998H48.2662V22.9147H46.2073ZM46.2073 24.492V23.7889H48.1496V24.492H46.2073ZM45.6707 22.1998H46.4756V26.3351H45.6707V22.1998Z" fill="white"/>
<path d="M57.1316 24.0134L56.8691 26.3351H56L56.6066 21.993L58.3156 24.6632L60.0246 21.993L60.6312 26.3351H59.7622L59.4997 24.0134L58.3156 25.9511L57.1316 24.0134Z" fill="white"/>
<path d="M68.9017 24.2674C68.9017 24.5312 68.9562 24.7656 69.0651 24.9704C69.1739 25.1751 69.3236 25.3366 69.5142 25.4548C69.7047 25.5729 69.9264 25.632 70.1791 25.632C70.4319 25.632 70.6535 25.5729 70.844 25.4548C71.0346 25.3366 71.1824 25.1751 71.2874 24.9704C71.3962 24.7656 71.4506 24.5312 71.4506 24.2674C71.4506 24.0035 71.3982 23.7692 71.2932 23.5644C71.1882 23.3596 71.0404 23.1982 70.8499 23.08C70.6593 22.9618 70.4358 22.9028 70.1791 22.9028C69.9264 22.9028 69.7047 22.9618 69.5142 23.08C69.3236 23.1982 69.1739 23.3596 69.0651 23.5644C68.9562 23.7692 68.9017 24.0035 68.9017 24.2674ZM68.021 24.2674C68.021 23.9523 68.0754 23.6648 68.1843 23.4049C68.2932 23.141 68.4448 22.9126 68.6393 22.7196C68.8337 22.5267 69.0612 22.3789 69.3217 22.2766C69.5862 22.1703 69.8719 22.1171 70.1791 22.1171C70.4902 22.1171 70.776 22.1703 71.0366 22.2766C71.2971 22.3789 71.5245 22.5267 71.719 22.7196C71.9173 22.9126 72.0689 23.141 72.1739 23.4049C72.2828 23.6648 72.3373 23.9523 72.3373 24.2674C72.3373 24.5785 72.2828 24.868 72.1739 25.1358C72.0689 25.3996 71.9192 25.63 71.7248 25.827C71.5343 26.0239 71.3068 26.1775 71.0424 26.2877C70.7818 26.394 70.4941 26.4473 70.1791 26.4473C69.8642 26.4473 69.5745 26.394 69.31 26.2877C69.0495 26.1775 68.8221 26.0239 68.6276 25.827C68.4332 25.63 68.2834 25.3996 68.1785 25.1358C68.0735 24.868 68.021 24.5785 68.021 24.2674Z" fill="white"/>
<path d="M80.401 24.5156V23.7536H83.3993V24.5156H80.401ZM82.8688 22.1998H83.7029V26.3351H82.8688V22.1998ZM80.127 22.1998H80.961V26.3351H80.127V22.1998Z" fill="white"/>
<path d="M91.3181 22.9619V22.1998H94.3516V22.9619H93.2491V26.3351H92.415V22.9619H91.3181Z" fill="white"/>
<path d="M111.43 25.3958L111.529 24.7282H113.489L113.588 25.3958H111.43ZM112.497 23.5408L111.885 24.9645L111.903 25.1535L111.366 26.335H110.427L112.497 21.9576L114.568 26.335H113.623L113.098 25.189L113.11 24.9763L112.497 23.5408Z" fill="white"/>
<path d="M122.78 24.2379V23.854H123.439C123.56 23.854 123.665 23.8342 123.754 23.7949C123.844 23.7555 123.912 23.6983 123.959 23.6236C124.009 23.5487 124.034 23.4601 124.034 23.3577C124.034 23.2002 123.98 23.0801 123.871 22.9974C123.766 22.9147 123.622 22.8733 123.439 22.8733H122.99V25.6616H123.527C123.667 25.6616 123.793 25.6419 123.906 25.6026C124.019 25.5593 124.106 25.4923 124.169 25.4017C124.235 25.3111 124.268 25.195 124.268 25.0531C124.268 24.9507 124.249 24.8641 124.209 24.7933C124.174 24.7184 124.122 24.6574 124.052 24.6101C123.986 24.5589 123.908 24.5235 123.819 24.5037C123.729 24.4802 123.632 24.4683 123.527 24.4683H122.78V24.0075H123.603C123.801 24.0075 123.99 24.0292 124.169 24.0726C124.352 24.1159 124.515 24.1847 124.658 24.2793C124.802 24.3698 124.915 24.488 124.997 24.6337C125.083 24.7794 125.125 24.9547 125.125 25.1595C125.125 25.4313 125.061 25.6538 124.932 25.8271C124.808 26.0003 124.631 26.1283 124.402 26.211C124.173 26.2937 123.906 26.3351 123.603 26.3351H122.156V22.1998H123.515C123.788 22.1998 124.027 22.2392 124.233 22.318C124.439 22.3928 124.6 22.507 124.717 22.6606C124.833 22.8143 124.892 23.0092 124.892 23.2454C124.892 23.4542 124.833 23.6334 124.717 23.783C124.6 23.9328 124.439 24.0469 124.233 24.1257C124.027 24.2005 123.788 24.2379 123.515 24.2379H122.78Z" fill="white"/>
<path d="M132.396 22.9619V22.1998H135.429V22.9619H134.327V26.3351H133.493V22.9619H132.396Z" fill="white"/>
<path d="M143.405 24.2674C143.405 24.5312 143.459 24.7656 143.569 24.9704C143.677 25.1751 143.827 25.3366 144.018 25.4548C144.208 25.5729 144.43 25.632 144.682 25.632C144.936 25.632 145.157 25.5729 145.348 25.4548C145.538 25.3366 145.686 25.1751 145.79 24.9704C145.9 24.7656 145.954 24.5312 145.954 24.2674C145.954 24.0035 145.901 23.7692 145.797 23.5644C145.691 23.3596 145.544 23.1982 145.353 23.08C145.162 22.9618 144.939 22.9028 144.682 22.9028C144.43 22.9028 144.208 22.9618 144.018 23.08C143.827 23.1982 143.677 23.3596 143.569 23.5644C143.459 23.7692 143.405 24.0035 143.405 24.2674ZM142.524 24.2674C142.524 23.9523 142.579 23.6648 142.687 23.4049C142.797 23.141 142.948 22.9126 143.143 22.7196C143.337 22.5267 143.565 22.3789 143.825 22.2766C144.089 22.1703 144.375 22.1171 144.682 22.1171C144.994 22.1171 145.279 22.1703 145.54 22.2766C145.801 22.3789 146.028 22.5267 146.223 22.7196C146.421 22.9126 146.573 23.141 146.677 23.4049C146.786 23.6648 146.841 23.9523 146.841 24.2674C146.841 24.5785 146.786 24.868 146.677 25.1358C146.573 25.3996 146.422 25.63 146.228 25.827C146.037 26.0239 145.81 26.1775 145.546 26.2877C145.285 26.394 144.997 26.4473 144.682 26.4473C144.368 26.4473 144.078 26.394 143.813 26.2877C143.553 26.1775 143.326 26.0239 143.131 25.827C142.937 25.63 142.786 25.3996 142.682 25.1358C142.577 24.868 142.524 24.5785 142.524 24.2674Z" fill="white"/>
</svg>
