<svg width="44" height="44" viewBox="0 0 44 44" fill="none" xmlns="http://www.w3.org/2000/svg">
<circle cx="22" cy="22" r="22" fill="#6BA2E2"/>
<path d="M30.7099 13.6545C30.7099 13.6545 32.6524 12.897 32.4899 14.7365C32.4364 15.494 31.9509 18.1455 31.5729 21.013L30.2779 29.508C30.2779 29.508 30.1699 30.7525 29.1984 30.969C28.2274 31.185 26.7704 30.2115 26.5004 29.995C26.2844 29.8325 22.4534 27.3975 21.1044 26.2075C20.7264 25.8825 20.2944 25.2335 21.1584 24.476L26.8244 19.065C27.4719 18.415 28.1194 16.9 25.4214 18.74L17.8664 23.88C17.8664 23.88 17.0029 24.4215 15.3844 23.9345L11.8764 22.852C11.8764 22.852 10.5814 22.0405 12.7939 21.229C18.1904 18.686 24.8279 16.089 30.7094 13.654" fill="white"/>
</svg>
