<svg width="44" height="44" viewBox="0 0 44 44" fill="none" xmlns="http://www.w3.org/2000/svg">
<circle cx="22" cy="22" r="22" fill="#D43228"/>
<path d="M16 14.5C15.2044 14.5 14.4413 14.8161 13.8787 15.3787C13.3161 15.9413 13 16.7044 13 17.5V17.8015L22 22.648L31 17.803V17.5C31 16.7044 30.6839 15.9413 30.1213 15.3787C29.5587 14.8161 28.7956 14.5 28 14.5H16ZM31 19.5055L22.3555 24.16C22.2462 24.2188 22.1241 24.2496 22 24.2496C21.8759 24.2496 21.7538 24.2188 21.6445 24.16L13 19.5055V26.5C13 27.2956 13.3161 28.0587 13.8787 28.6213C14.4413 29.1839 15.2044 29.5 16 29.5H28C28.7956 29.5 29.5587 29.1839 30.1213 28.6213C30.6839 28.0587 31 27.2956 31 26.5V19.5055Z" fill="white"/>
</svg>
