<svg width="44" height="44" viewBox="0 0 44 44" fill="none" xmlns="http://www.w3.org/2000/svg">
<circle cx="22" cy="22" r="22" fill="url(#paint0_linear_24_776)"/>
<path d="M23.0281 12C24.1531 12.003 24.7241 12.009 25.2171 12.023L25.4111 12.03C25.6351 12.038 25.8561 12.048 26.1231 12.06C27.1871 12.11 27.9131 12.278 28.5501 12.525C29.2101 12.779 29.7661 13.123 30.3221 13.678C30.8306 14.1779 31.224 14.7826 31.4751 15.45C31.7221 16.087 31.8901 16.813 31.9401 17.878C31.9521 18.144 31.9621 18.365 31.9701 18.59L31.9761 18.784C31.9911 19.276 31.9971 19.847 31.9991 20.972L32.0001 21.718V23.028C32.0025 23.7574 31.9949 24.4868 31.9771 25.216L31.9711 25.41C31.9631 25.635 31.9531 25.856 31.9411 26.122C31.8911 27.187 31.7211 27.912 31.4751 28.55C31.2248 29.2178 30.8312 29.8226 30.3221 30.322C29.8221 30.8303 29.2174 31.2238 28.5501 31.475C27.9131 31.722 27.1871 31.89 26.1231 31.94C25.8858 31.9512 25.6485 31.9612 25.4111 31.97L25.2171 31.976C24.7241 31.99 24.1531 31.997 23.0281 31.999L22.2821 32H20.9731C20.2434 32.0025 19.5136 31.9949 18.7841 31.977L18.5901 31.971C18.3527 31.962 18.1154 31.9517 17.8781 31.94C16.8141 31.89 16.0881 31.722 15.4501 31.475C14.7828 31.2244 14.1783 30.8308 13.6791 30.322C13.1701 29.8223 12.7763 29.2176 12.5251 28.55C12.2781 27.913 12.1101 27.187 12.0601 26.122C12.0489 25.8847 12.0389 25.6474 12.0301 25.41L12.0251 25.216C12.0067 24.4868 11.9983 23.7574 12.0001 23.028V20.972C11.9973 20.2426 12.0046 19.5132 12.0221 18.784L12.0291 18.59C12.0371 18.365 12.0471 18.144 12.0591 17.878C12.1091 16.813 12.2771 16.088 12.5241 15.45C12.7752 14.7819 13.1698 14.177 13.6801 13.678C14.1792 13.1695 14.7832 12.776 15.4501 12.525C16.0881 12.278 16.8131 12.11 17.8781 12.06C18.1441 12.048 18.3661 12.038 18.5901 12.03L18.7841 12.024C19.5133 12.0062 20.2427 11.9986 20.9721 12.001L23.0281 12ZM22.0001 17C20.674 17 19.4022 17.5268 18.4646 18.4645C17.5269 19.4021 17.0001 20.6739 17.0001 22C17.0001 23.3261 17.5269 24.5979 18.4646 25.5355C19.4022 26.4732 20.674 27 22.0001 27C23.3262 27 24.5979 26.4732 25.5356 25.5355C26.4733 24.5979 27.0001 23.3261 27.0001 22C27.0001 20.6739 26.4733 19.4021 25.5356 18.4645C24.5979 17.5268 23.3262 17 22.0001 17ZM22.0001 19C22.3941 18.9999 22.7842 19.0775 23.1482 19.2282C23.5122 19.3789 23.8429 19.5998 24.1216 19.8783C24.4002 20.1569 24.6212 20.4875 24.772 20.8515C24.9229 21.2154 25.0005 21.6055 25.0006 21.9995C25.0007 22.3935 24.9231 22.7836 24.7724 23.1476C24.6217 23.5116 24.4008 23.8423 24.1223 24.121C23.8437 24.3996 23.5131 24.6206 23.1491 24.7714C22.7851 24.9223 22.3951 24.9999 22.0011 25C21.2054 25 20.4424 24.6839 19.8798 24.1213C19.3172 23.5587 19.0011 22.7956 19.0011 22C19.0011 21.2044 19.3172 20.4413 19.8798 19.8787C20.4424 19.3161 21.2054 19 22.0011 19M27.2511 15.5C26.9196 15.5 26.6016 15.6317 26.3672 15.8661C26.1328 16.1005 26.0011 16.4185 26.0011 16.75C26.0011 17.0815 26.1328 17.3995 26.3672 17.6339C26.6016 17.8683 26.9196 18 27.2511 18C27.5826 18 27.9006 17.8683 28.135 17.6339C28.3694 17.3995 28.5011 17.0815 28.5011 16.75C28.5011 16.4185 28.3694 16.1005 28.135 15.8661C27.9006 15.6317 27.5826 15.5 27.2511 15.5Z" fill="white"/>
<defs>
<linearGradient id="paint0_linear_24_776" x1="22" y1="0" x2="22" y2="44" gradientUnits="userSpaceOnUse">
<stop stop-color="#4445EB"/>
<stop offset="0.275" stop-color="#B137C7"/>
<stop offset="0.535" stop-color="#F12E6D"/>
<stop offset="0.775" stop-color="#F06D34"/>
<stop offset="1" stop-color="#EECB6C"/>
</linearGradient>
</defs>
</svg>
