<svg width="44" height="44" viewBox="0 0 44 44" fill="none" xmlns="http://www.w3.org/2000/svg">
<circle cx="22" cy="22" r="22" fill="#D43228"/>
<path d="M25.2475 26.11L26.9275 24.43C27.1538 24.2066 27.44 24.0536 27.7516 23.9897C28.0631 23.9258 28.3865 23.9537 28.6825 24.07L30.73 24.8875C31.0291 25.0089 31.2856 25.2162 31.4671 25.4831C31.6486 25.75 31.747 26.0647 31.75 26.3875V30.1375C31.7482 30.3571 31.7021 30.5741 31.6143 30.7753C31.5265 30.9766 31.3989 31.158 31.2391 31.3087C31.0793 31.4594 30.8907 31.5761 30.6847 31.652C30.4786 31.7278 30.2593 31.7612 30.04 31.75C15.6925 30.8575 12.7975 18.7075 12.25 14.0575C12.2246 13.8292 12.2478 13.598 12.3181 13.3793C12.3884 13.1606 12.5043 12.9592 12.658 12.7885C12.8118 12.6177 12.9999 12.4815 13.2101 12.3887C13.4203 12.2959 13.6477 12.2486 13.8775 12.25H17.5C17.8232 12.251 18.1388 12.3486 18.4061 12.5304C18.6734 12.7122 18.8803 12.9698 19 13.27L19.8175 15.3175C19.9377 15.6123 19.9683 15.936 19.9056 16.2481C19.8429 16.5603 19.6897 16.847 19.465 17.0725L17.785 18.7525C17.785 18.7525 18.7525 25.3 25.2475 26.11Z" fill="white"/>
</svg>
